<svg xmlns="http://www.w3.org/2000/svg" viewBox="0 0 512 512">
  <defs>
    <linearGradient id="g" x1="0%" y1="0%" x2="100%" y2="100%">
      <stop offset="0%" style="stop-color:#22c55e"/>
      <stop offset="100%" style="stop-color:#16a34a"/>
    </linearGradient>
  </defs>
  <rect width="512" height="512" rx="96" fill="url(#g)"/>
  <!-- Stem -->
  <path d="M256 420 C256 420 256 280 256 240" stroke="white" stroke-width="24" stroke-linecap="round" fill="none"/>
  <!-- Left leaf -->
  <path d="M256 280 C220 240 160 230 140 200 C160 220 220 210 256 250" fill="white" opacity="0.9"/>
  <!-- Right leaf -->
  <path d="M256 240 C290 200 350 180 380 150 C360 180 300 190 256 230" fill="white"/>
  <!-- Top sprout -->
  <path d="M256 200 C240 160 220 120 230 90 C250 110 260 150 256 190" fill="white" opacity="0.95"/>
  <path d="M256 200 C272 160 292 120 282 90 C262 110 252 150 256 190" fill="white" opacity="0.85"/>
  <!-- Ground -->
  <ellipse cx="256" cy="430" rx="60" ry="12" fill="white" opacity="0.3"/>
</svg>
